<?xml version="1.0" encoding="UTF-8" standalone="no"?>
<!-- Created with Inkscape (http://www.inkscape.org/) -->

<svg
   width="8.202549mm"
   height="8.2011318mm"
   viewBox="0 0 8.202549 8.2011318"
   version="1.1"
   id="svg2876"
   xmlns="http://www.w3.org/2000/svg"
   xmlns:svg="http://www.w3.org/2000/svg">
  <defs
     id="defs2873" />
  <g
     id="layer1"
     transform="translate(-100.85233,-144.22933)">
    <g
       id="g187"
       transform="matrix(0.35277777,0,0,-0.35277777,102.95958,147.15968)">
      <path
         d="M 0,0 C 0.289,0.491 0.64,0.942 1.042,1.341 L -2.375,5.087 C -3.233,4.267 -3.968,3.313 -4.544,2.264 Z"
         style="fill:#5fbb46;fill-opacity:1;fill-rule:nonzero;stroke:none"
         id="path189" />
    </g>
    <g
       id="g195"
       transform="matrix(0.35277777,0,0,-0.35277777,108.68291,146.62328)">
      <path
         d="m 0,0 -4.541,-2.264 c 0.216,-0.506 0.371,-1.045 0.454,-1.605 l 5.052,0.476 C 0.816,-2.196 0.484,-1.055 0,0"
         style="fill:#c5212f;fill-opacity:1;fill-rule:nonzero;stroke:none"
         id="path197" />
    </g>
    <g
       id="g199"
       transform="matrix(0.35277777,0,0,-0.35277777,106.96591,147.19034)">
      <path
         d="M 0,0 4.541,2.264 C 3.979,3.309 3.261,4.258 2.419,5.08 L -1.008,1.341 C -0.617,0.939 -0.277,0.49 0,0"
         style="fill:#4b9f45;fill-opacity:1;fill-rule:nonzero;stroke:none"
         id="path201" />
    </g>
    <g
       id="g203"
       transform="matrix(0.35277777,0,0,-0.35277777,102.64127,148.32893)">
      <path
         d="M 0,0 C 0,0.103 0.003,0.204 0.008,0.306 L -5.045,0.758 C -5.062,0.508 -5.071,0.255 -5.071,0 c 0,-0.97 0.121,-1.911 0.343,-2.812 l 4.881,1.401 C 0.054,-0.956 0,-0.483 0,0"
         style="fill:#427f44;fill-opacity:1;fill-rule:nonzero;stroke:none"
         id="path205" />
    </g>
    <g
       id="g207"
       transform="matrix(0.35277777,0,0,-0.35277777,106.74161,149.79412)">
      <path
         d="m 0,0 c -0.359,-0.437 -0.774,-0.827 -1.232,-1.159 l 2.668,-4.32 c 0.99,0.67 1.871,1.491 2.612,2.426 z"
         style="fill:#f9c416;fill-opacity:1;fill-rule:nonzero;stroke:none"
         id="path209" />
    </g>
    <g
       id="g211"
       transform="matrix(0.35277777,0,0,-0.35277777,107.2663,148.32893)">
      <path
         d="M 0,0 C 0,-0.478 -0.052,-0.944 -0.15,-1.394 L 4.729,-2.796 C 4.951,-1.899 5.07,-0.964 5.07,0 5.07,0.239 5.062,0.478 5.047,0.714 L -0.006,0.235 C -0.002,0.157 0,0.079 0,0"
         style="fill:#ef412c;fill-opacity:1;fill-rule:nonzero;stroke:none"
         id="path213" />
    </g>
    <g
       id="g215"
       transform="matrix(0.35277777,0,0,-0.35277777,103.19489,149.82823)">
      <path
         d="m 0,0 -4.039,-3.069 c 0.751,-0.924 1.641,-1.732 2.638,-2.39 l 2.667,4.315 C 0.796,-0.819 0.371,-0.434 0,0"
         style="fill:#f99f27;fill-opacity:1;fill-rule:nonzero;stroke:none"
         id="path217" />
    </g>
    <g
       id="g219"
       transform="matrix(0.35277777,0,0,-0.35277777,102.6702,147.96408)">
      <path
         d="M 0,0 C 0.09,0.572 0.256,1.117 0.483,1.629 L -4.056,3.89 C -4.558,2.822 -4.901,1.666 -5.058,0.455 Z"
         style="fill:#1a96d4;fill-opacity:1;fill-rule:nonzero;stroke:none"
         id="path221" />
    </g>
    <g
       id="g223"
       transform="matrix(0.35277777,0,0,-0.35277777,107.02895,151.86464)">
      <path
         d="M 0,0 -2.663,4.313 C -3.147,4.041 -3.669,3.826 -4.219,3.682 l 0.941,-4.991 C -2.108,-1.039 -1.006,-0.594 0,0"
         style="fill:#a21c44;fill-opacity:1;fill-rule:nonzero;stroke:none"
         id="path225" />
    </g>
    <g
       id="g227"
       transform="matrix(0.35277777,0,0,-0.35277777,107.14469,149.06997)">
      <path
         d="M 0,0 C -0.177,-0.52 -0.416,-1.01 -0.709,-1.461 L 3.342,-4.518 C 4,-3.571 4.521,-2.523 4.876,-1.401 Z"
         style="fill:#28bde2;fill-opacity:1;fill-rule:nonzero;stroke:none"
         id="path229" />
    </g>
    <g
       id="g231"
       transform="matrix(0.35277777,0,0,-0.35277777,105.28742,150.61718)">
      <path
         d="m 0,0 c -0.309,-0.045 -0.625,-0.069 -0.945,-0.069 -0.26,0 -0.514,0.015 -0.764,0.045 l -0.939,-4.991 c 0.555,-0.082 1.123,-0.125 1.703,-0.125 0.64,0 1.27,0.054 1.883,0.155 z"
         style="fill:#f36a2c;fill-opacity:1;fill-rule:nonzero;stroke:none"
         id="path233" />
    </g>
    <g
       id="g235"
       transform="matrix(0.35277777,0,0,-0.35277777,105.1014,146.02105)">
      <path
         d="M 0,0 C 0.563,-0.036 1.107,-0.143 1.623,-0.312 L 3.445,4.423 C 2.36,4.806 1.205,5.033 0,5.074 Z"
         style="fill:#e9253c;fill-opacity:1;fill-rule:nonzero;stroke:none"
         id="path237" />
    </g>
    <g
       id="g239"
       transform="matrix(0.35277777,0,0,-0.35277777,104.42961,150.58169)">
      <path
         d="m 0,0 c -0.568,0.133 -1.107,0.34 -1.609,0.609 l -2.668,-4.318 c 1.026,-0.586 2.148,-1.022 3.338,-1.275 z"
         style="fill:#dd1768;fill-opacity:1;fill-rule:nonzero;stroke:none"
         id="path241" />
    </g>
    <g
       id="g243"
       transform="matrix(0.35277777,0,0,-0.35277777,104.25872,146.12339)">
      <path
         d="M 0,0 C 0.525,0.166 1.081,0.269 1.656,0.296 V 5.369 C 0.436,5.337 -0.736,5.115 -1.835,4.733 Z"
         style="fill:#1a496b;fill-opacity:1;fill-rule:nonzero;stroke:none"
         id="path245" />
    </g>
    <g
       id="g247"
       transform="matrix(0.35277777,0,0,-0.35277777,103.0378,149.62256)">
      <path
         d="m 0,0 c -0.322,0.477 -0.584,0.996 -0.772,1.551 l -4.877,-1.4 c 0.368,-1.164 0.917,-2.247 1.61,-3.221 z"
         style="fill:#c7982d;fill-opacity:1;fill-rule:nonzero;stroke:none"
         id="path249" />
    </g>
    <g
       id="g251"
       transform="matrix(0.35277777,0,0,-0.35277777,103.52078,146.51508)">
      <path
         d="M 0,0 C 0.43,0.339 0.9,0.625 1.406,0.852 L -0.428,5.581 C -1.52,5.123 -2.527,4.502 -3.418,3.75 Z"
         style="fill:#03699d;fill-opacity:1;fill-rule:nonzero;stroke:none"
         id="path253" />
    </g>
    <path
       d="m 105.91445,146.2257 c 0.18274,0.084 0.35278,0.19015 0.50588,0.31679 l 1.20827,-1.31938 c -0.31821,-0.27482 -0.6791,-0.50165 -1.07068,-0.66852 z"
       style="fill:#e5b733;fill-opacity:1;fill-rule:nonzero;stroke:none;stroke-width:0.352778"
       id="path193" />
  </g>
</svg>
